# 3ds Max Wavefront OBJ Exporter v0.97b - (c)2007 guruware
# File Created: 08.06.2016 20:29:33

mtllib hit.mtl

#
# object fire001
#

v  0.0000 0.0357 0.0144
v  -0.0243 0.0908 0.0167
v  0.0000 -0.0010 0.0000
v  0.0181 0.0718 0.0186
v  0.0131 0.0357 0.0000
v  0.0179 0.0853 -0.0204
v  0.0000 0.0357 -0.0144
v  -0.0174 0.0927 -0.0163
v  -0.0131 0.0357 0.0000
v  0.0000 0.0357 0.0000
# 10 vertices

vn -0.0822 -0.3644 0.9276
vn -0.5959 -0.2937 0.7475
vn -0.1375 -0.3622 0.9219
vn 0.4561 -0.3254 0.8283
vn 0.9381 -0.3360 -0.0838
vn 0.8732 -0.3128 0.3738
vn 0.9383 -0.3361 -0.0820
vn 0.8071 -0.2891 -0.5147
vn -0.1066 -0.3636 -0.9254
vn 0.5743 -0.2994 -0.7620
vn -0.1551 -0.3612 -0.9195
vn -0.7399 -0.2460 -0.6261
vn -0.9319 -0.3338 -0.1421
vn -0.6873 -0.2462 -0.6834
vn -0.9202 -0.3296 -0.2112
vn -0.8469 -0.3034 0.4366
vn -0.0176 0.9998 -0.0000
vn 0.0817 0.9942 0.0695
vn 0.6457 0.4674 -0.6037
vn -0.6034 0.5831 -0.5440
vn 0.0000 0.9998 0.0215
vn -0.6541 0.4774 0.5867
vn -0.0497 0.9988 -0.0000
vn 0.6814 0.3854 0.6222
vn 0.0000 0.9939 -0.1105
# 25 vertex normals

vt 0.5000 -0.0000 0.0000
vt 0.0000 -0.0000 0.0000
vt 0.5000 1.0000 0.0000
vt 1.0000 -0.0000 0.0000
vt 0.5441 -0.0000 0.0000
vt 0.0441 -0.0000 0.0000
vt 1.0441 -0.0000 0.0000
vt 0.5000 0.5000 0.0000
vt 0.0000 1.0000 0.0000
vt 1.0000 1.0000 0.0000
vt 1.0000 0.5000 0.0000
vt 1.0000 0.0000 0.0000
vt 0.5000 0.0000 0.0000
vt 0.0000 0.0000 0.0000
vt 0.0000 0.5000 0.0000
# 15 texture coords

g fire001
usemtl 05___Default
s 4
f 1/1/1 2/2/2 3/3/3 
f 4/4/4 1/1/1 3/3/3 
s 2
f 5/5/5 4/6/6 3/3/7 
f 6/7/8 5/5/5 3/3/7 
s 16
f 7/1/9 6/2/10 3/3/11 
f 8/4/12 7/1/9 3/3/11 
s 32
f 9/5/13 8/6/14 3/3/15 
f 2/7/16 9/5/13 3/3/15 
s 8
f 1/3/17 10/8/18 2/9/19 
f 4/10/20 10/8/18 1/3/17 
f 5/11/21 10/8/18 4/10/20 
f 6/12/22 10/8/18 5/11/21 
f 7/13/23 10/8/18 6/12/22 
f 8/14/24 10/8/18 7/13/23 
f 9/15/25 10/8/18 8/14/24 
f 2/9/19 10/8/18 9/15/25 
# 16 faces

